<svg xmlns="http://www.w3.org/2000/svg" viewBox="0 0 512 512" width="512" height="512">
  <defs>
    <linearGradient id="bg" x1="0%" y1="0%" x2="100%" y2="100%">
      <stop offset="0%" style="stop-color:#D97757"/>
      <stop offset="100%" style="stop-color:#C4633E"/>
    </linearGradient>
    <linearGradient id="cat" x1="0%" y1="0%" x2="100%" y2="100%">
      <stop offset="0%" style="stop-color:#FFF8F2"/>
      <stop offset="100%" style="stop-color:#F5E6D8"/>
    </linearGradient>
  </defs>

  <!-- 둥근 사각형 배경 -->
  <rect x="16" y="16" width="480" height="480" rx="112" ry="112" fill="url(#bg)"/>

  <!-- 고양이 캐릭터 -->
  <g transform="translate(256, 260)">
    <!-- 메인 몸체 -->
    <ellipse cx="0" cy="20" rx="110" ry="95" fill="url(#cat)" opacity="0.95"/>

    <!-- 머리 -->
    <circle cx="0" cy="-65" r="82" fill="url(#cat)" opacity="0.95"/>

    <!-- 왼쪽 귀 -->
    <path d="M-65,-120 L-85,-195 L-25,-140 Z" fill="url(#cat)" opacity="0.95"/>
    <path d="M-60,-125 L-78,-180 L-32,-140 Z" fill="#E8A87C" opacity="0.5"/>

    <!-- 오른쪽 귀 -->
    <path d="M65,-120 L85,-195 L25,-140 Z" fill="url(#cat)" opacity="0.95"/>
    <path d="M60,-125 L78,-180 L32,-140 Z" fill="#E8A87C" opacity="0.5"/>

    <!-- 볼 터치 -->
    <circle cx="-48" cy="-40" r="18" fill="#E8C4AA" opacity="0.55"/>
    <circle cx="48" cy="-40" r="18" fill="#E8C4AA" opacity="0.55"/>

    <!-- 눈 (왼쪽) -->
    <ellipse cx="-28" cy="-72" rx="11" ry="12" fill="#3D2B1F"/>
    <circle cx="-24" cy="-76" r="3.5" fill="#ffffff"/>

    <!-- 눈 (오른쪽) -->
    <ellipse cx="28" cy="-72" rx="11" ry="12" fill="#3D2B1F"/>
    <circle cx="32" cy="-76" r="3.5" fill="#ffffff"/>

    <!-- 코 -->
    <path d="M-5,-54 L0,-48 L5,-54 Z" fill="#E8A87C"/>

    <!-- 입 -->
    <path d="M0,-48 Q-8,-42 -14,-46" stroke="#3D2B1F" stroke-width="2.5" fill="none" stroke-linecap="round"/>
    <path d="M0,-48 Q8,-42 14,-46" stroke="#3D2B1F" stroke-width="2.5" fill="none" stroke-linecap="round"/>

    <!-- 수염 (왼쪽) -->
    <line x1="-38" y1="-55" x2="-75" y2="-65" stroke="#3D2B1F" stroke-width="2" stroke-linecap="round" opacity="0.4"/>
    <line x1="-38" y1="-48" x2="-78" y2="-48" stroke="#3D2B1F" stroke-width="2" stroke-linecap="round" opacity="0.4"/>
    <line x1="-38" y1="-41" x2="-75" y2="-31" stroke="#3D2B1F" stroke-width="2" stroke-linecap="round" opacity="0.4"/>

    <!-- 수염 (오른쪽) -->
    <line x1="38" y1="-55" x2="75" y2="-65" stroke="#3D2B1F" stroke-width="2" stroke-linecap="round" opacity="0.4"/>
    <line x1="38" y1="-48" x2="78" y2="-48" stroke="#3D2B1F" stroke-width="2" stroke-linecap="round" opacity="0.4"/>
    <line x1="38" y1="-41" x2="75" y2="-31" stroke="#3D2B1F" stroke-width="2" stroke-linecap="round" opacity="0.4"/>

    <!-- OTP 숫자 표시 (몸통에) -->
    <circle cx="-30" cy="25" r="9" fill="#D97757" opacity="0.5"/>
    <circle cx="0" cy="25" r="9" fill="#D97757" opacity="0.7"/>
    <circle cx="30" cy="25" r="9" fill="#D97757" opacity="0.9"/>

    <!-- 꼬리 -->
    <path d="M85,50 Q140,20 145,-30 Q148,-55 130,-65" stroke="url(#cat)" stroke-width="22" fill="none" stroke-linecap="round" opacity="0.95"/>

    <!-- 발 -->
    <ellipse cx="-30" cy="112" rx="18" ry="10" fill="url(#cat)" opacity="0.95"/>
    <ellipse cx="30" cy="112" rx="18" ry="10" fill="url(#cat)" opacity="0.95"/>
  </g>
</svg>
